name analog
datacolumns 19
datarows 41
range 0.249 0.269
endheader
time	ground_force_vx	ground_force_vy	ground_force_vz	ground_force_px	ground_force_py	ground_force_pz	l_ground_force_vx	l_ground_force_vy	l_ground_force_vz	l_ground_force_px	l_ground_force_py	l_ground_force_pz	ground_torque_x	ground_torque_y	ground_torque_z	l_ground_torque_x	l_ground_torque_y	l_ground_torque_z
0.249	-0.0	-0.0	-0.0	-0.0	-0.0	-0.0	6.328614711761475	6.7932658195495605	-769.619140625	-0.0	-0.0	-0.0	-0.0	-0.0	-0.0	227672.4375	-16567.091796875	105.3000259399414
0.2495	-0.0	-0.0	-0.0	-0.0	-0.0	-0.0	6.772018432617188	6.219852447509766	-767.435302734375	-0.0	-0.0	-0.0	-0.0	-0.0	-0.0	226767.15625	-16557.83203125	194.4117126464844
0.25	-0.0	-0.0	-0.0	-0.0	-0.0	-0.0	7.09686279296875	5.2993011474609375	-765.0206298828125	-0.0	-0.0	-0.0	-0.0	-0.0	-0.0	225462.640625	-16893.69921875	362.3617858886719
0.2505	-0.0	-0.0	-0.0	-0.0	-0.0	-0.0	7.274284362792969	3.768223762512207	-762.8377075195312	-0.0	-0.0	-0.0	-0.0	-0.0	-0.0	224192.796875	-16428.96484375	461.0356750488281
0.251	-0.0	-0.0	-0.0	-0.0	-0.0	-0.0	6.468490123748779	2.1564881801605225	-759.0265502929688	-0.0	-0.0	-0.0	-0.0	-0.0	-0.0	222579.28125	-16023.76171875	380.8863220214844
0.2515	-0.0	-0.0	-0.0	-0.0	-0.0	-0.0	5.899458885192871	1.273526906967163	-754.8368530273438	-0.0	-0.0	-0.0	-0.0	-0.0	-0.0	221503.078125	-15590.9375	39.10585784912109
0.252	-0.0	-0.0	-0.0	-0.0	-0.0	-0.0	4.6796746253967285	0.4934294521808624	-751.22998046875	-0.0	-0.0	-0.0	-0.0	-0.0	-0.0	219419.875	-15363.650390625	-288.2831726074219
0.2525	-0.0	-0.0	-0.0	-0.0	-0.0	-0.0	3.711263418197632	0.5892005562782288	-747.15576171875	-0.0	-0.0	-0.0	-0.0	-0.0	-0.0	218405.125	-14972.0400390625	-575.4635620117188
0.253	-0.0	-0.0	-0.0	-0.0	-0.0	-0.0	2.6758382320404053	0.6110262870788574	-745.032470703125	-0.0	-0.0	-0.0	-0.0	-0.0	-0.0	217439.25	-14938.2998046875	-885.4361572265625
0.2535	-0.0	-0.0	-0.0	-0.0	-0.0	-0.0	2.831511974334717	0.9427327513694764	-744.013671875	-0.0	-0.0	-0.0	-0.0	-0.0	-0.0	216788.28125	-15191.177734375	-939.7399291992188
0.254	-0.0	-0.0	-0.0	-0.0	-0.0	-0.0	3.2007839679718018	0.7948951721191406	-744.4478759765625	-0.0	-0.0	-0.0	-0.0	-0.0	-0.0	216488.265625	-15368.732421875	-835.3333129882812
0.2545	-0.0	-0.0	-0.0	-0.0	-0.0	-0.0	4.095012664794922	1.2792644500732422	-745.6751708984375	-0.0	-0.0	-0.0	-0.0	-0.0	-0.0	216924.515625	-15847.072265625	-578.0753784179688
0.255	-0.0	-0.0	-0.0	-0.0	-0.0	-0.0	5.500068664550781	2.215141534805298	-748.5810546875	-0.0	-0.0	-0.0	-0.0	-0.0	-0.0	216962.078125	-16554.869140625	-150.99917602539062
0.2555	-0.0	-0.0	-0.0	-0.0	-0.0	-0.0	6.7420196533203125	2.533080577850342	-753.00830078125	-0.0	-0.0	-0.0	-0.0	-0.0	-0.0	217779.375	-17134.240234375	-12.366267204284668
0.256	-0.0	-0.0	-0.0	-0.0	-0.0	-0.0	6.784353733062744	2.412784576416016	-752.7708740234375	-0.0	-0.0	-0.0	-0.0	-0.0	-0.0	218116.03125	-17695.103515625	131.17210388183594
0.2565	-0.0	-0.0	-0.0	-0.0	-0.0	-0.0	7.71081018447876	2.568326234817505	-755.0317993164062	-0.0	-0.0	-0.0	-0.0	-0.0	-0.0	218256.796875	-18020.001953125	330.0905456542969
0.257	-0.0	-0.0	-0.0	-0.0	-0.0	-0.0	8.768385887145996	2.554368734359741	-758.0081787109375	-0.0	-0.0	-0.0	-0.0	-0.0	-0.0	218600.125	-18403.1015625	500.2106323242188
0.2575	-0.0	-0.0	-0.0	-0.0	-0.0	-0.0	9.165023803710938	1.8270643949508667	-759.1651611328125	-0.0	-0.0	-0.0	-0.0	-0.0	-0.0	219026.859375	-18783.521484375	951.581298828125
0.258	-0.0	-0.0	-0.0	-0.0	-0.0	-0.0	10.187889099121094	1.0253831148147583	-761.1777954101562	-0.0	-0.0	-0.0	-0.0	-0.0	-0.0	219371.75	-18838.271484375	1139.3714599609375
0.2585	-0.0	-0.0	-0.0	-0.0	-0.0	-0.0	10.126806259155272	-0.0480066612362861	-761.2047119140625	-0.0	-0.0	-0.0	-0.0	-0.0	-0.0	218786.5	-18828.140625	1175.6044921875
0.259	-0.0	-0.0	-0.0	-0.0	-0.0	-0.0	10.413415908813477	-0.7880743741989136	-760.0491333007812	-0.0	-0.0	-0.0	-0.0	-0.0	-0.0	217958.1875	-18768.01171875	1483.5352783203125
0.2595	-0.0	-0.0	-0.0	-0.0	-0.0	-0.0	10.2085542678833	-1.5286054611206057	-757.309814453125	-0.0	-0.0	-0.0	-0.0	-0.0	-0.0	217200.046875	-18390.75390625	1446.7386474609375
0.26	-0.0	-0.0	-0.0	-0.0	-0.0	-0.0	9.758186340332031	-2.37117338180542	-753.818359375	-0.0	-0.0	-0.0	-0.0	-0.0	-0.0	215868.0	-18286.814453125	1160.9661865234375
0.2605	-0.0	-0.0	-0.0	-0.0	-0.0	-0.0	9.192179679870604	-2.6496505737304688	-751.3211669921875	-0.0	-0.0	-0.0	-0.0	-0.0	-0.0	215023.484375	-17737.046875	1119.55859375
0.261	-0.0	-0.0	-0.0	-0.0	-0.0	-0.0	8.243391990661621	-3.2411768436431885	-748.5018310546875	-0.0	-0.0	-0.0	-0.0	-0.0	-0.0	213621.859375	-17593.73046875	719.220458984375
0.2615	-0.0	-0.0	-0.0	-0.0	-0.0	-0.0	7.205633163452148	-3.526210069656372	-745.089599609375	-0.0	-0.0	-0.0	-0.0	-0.0	-0.0	212842.96875	-17240.48828125	533.7098388671875
0.262	-0.0	-0.0	-0.0	-0.0	-0.0	-0.0	7.316451072692871	-3.1795806884765625	-744.7141723632812	-0.0	-0.0	-0.0	-0.0	-0.0	-0.0	211935.59375	-16679.068359375	474.57366943359375
0.2625	-0.0	-0.0	-0.0	-0.0	-0.0	-0.0	6.101209163665772	-3.3298935890197754	-744.6622924804688	-0.0	-0.0	-0.0	-0.0	-0.0	-0.0	211237.5	-16347.7666015625	240.80569458007807
0.263	-0.0	-0.0	-0.0	-0.0	-0.0	-0.0	5.4934844970703125	-3.029158353805542	-745.283203125	-0.0	-0.0	-0.0	-0.0	-0.0	-0.0	211155.328125	-16081.69921875	117.390380859375
0.2635	-0.0	-0.0	-0.0	-0.0	-0.0	-0.0	5.030328273773193	-3.532867431640625	-744.06787109375	-0.0	-0.0	-0.0	-0.0	-0.0	-0.0	211096.84375	-16045.177734375	9.247626304626465
0.264	-0.0	-0.0	-0.0	-0.0	-0.0	-0.0	4.524250030517578	-4.164080619812012	-744.1445922851562	-0.0	-0.0	-0.0	-0.0	-0.0	-0.0	210958.09375	-15778.0625	-146.1602325439453
0.2645	-0.0	-0.0	-0.0	-0.0	-0.0	-0.0	4.396649360656738	-4.706862449645996	-746.5372314453125	-0.0	-0.0	-0.0	-0.0	-0.0	-0.0	211041.359375	-15519.2041015625	-146.3888397216797
0.265	-0.0	-0.0	-0.0	-0.0	-0.0	-0.0	4.675894737243652	-5.62692403793335	-746.5115966796875	-0.0	-0.0	-0.0	-0.0	-0.0	-0.0	210998.640625	-15499.470703125	63.37921142578125
0.2655	-0.0	-0.0	-0.0	-0.0	-0.0	-0.0	4.612960815429688	-5.8356099128723145	-748.6314697265625	-0.0	-0.0	-0.0	-0.0	-0.0	-0.0	210889.03125	-15427.3857421875	90.79061126708984
0.266	-0.0	-0.0	-0.0	-0.0	-0.0	-0.0	4.612960815429688	-6.42842960357666	-748.779541015625	-0.0	-0.0	-0.0	-0.0	-0.0	-0.0	210780.265625	-14866.5771484375	124.5702896118164
0.2665	-0.0	-0.0	-0.0	-0.0	-0.0	-0.0	4.3848066329956055	-6.561059951782227	-749.6285400390625	-0.0	-0.0	-0.0	-0.0	-0.0	-0.0	210773.890625	-14795.7802734375	52.297760009765625
0.267	-0.0	-0.0	-0.0	-0.0	-0.0	-0.0	3.269690752029419	-7.261207580566406	-750.00244140625	-0.0	-0.0	-0.0	-0.0	-0.0	-0.0	211298.734375	-14213.392578125	-380.9353942871094
0.2675	-0.0	-0.0	-0.0	-0.0	-0.0	-0.0	1.970439314842224	-7.412781715393066	-752.4710693359375	-0.0	-0.0	-0.0	-0.0	-0.0	-0.0	211294.359375	-13794.033203125	-564.0982666015625
0.268	-0.0	-0.0	-0.0	-0.0	-0.0	-0.0	1.4131333827972412	-7.7412495613098145	-756.439697265625	-0.0	-0.0	-0.0	-0.0	-0.0	-0.0	212168.84375	-13691.0595703125	-710.8118896484375
0.2685	-0.0	-0.0	-0.0	-0.0	-0.0	-0.0	0.8418087363243103	-7.470296382904053	-759.0068359375	-0.0	-0.0	-0.0	-0.0	-0.0	-0.0	212961.65625	-13759.8359375	-653.9075927734375
0.269	-0.0	-0.0	-0.0	-0.0	-0.0	-0.0	1.4255367517471311	-7.098822116851807	-760.5735473632812	-0.0	-0.0	-0.0	-0.0	-0.0	-0.0	214230.28125	-13328.1630859375	-649.2755737304688
